<svg version="1.0" xmlns="http://www.w3.org/2000/svg" width="270" height="270" fill="#774724">
<path d="M172 126c2 0 3 1 3 3s-1 3-3 3-3-1-3-3 1-3 3-3Zm-6 4c2 4 4 7 8 6 4-2 4-4 4-8s-6-14-10-14c-7 0-5 7-4 10Zm14-2s1 8-7 10c-8 1-13-17-11-22 1-3 6-5 9-3s8 9 9 15Zm44-23c13-20 2-67-25-68-17 0-27 12-30 20-13-6-22-8-35-8 0 14 0 144 0 157 27 0 67 25 92 14 19-10 24-22 29-37 6-39-24-55-31-81Z" />
<path d="M100 126c-2 0-3 1-3 3s1 3 3 3 3-1 3-3-1-3-3-3Zm6 4c-2 4-4 7-8 6-4-2-4-4-4-8s6-14 10-14c7 0 5 7 4 10Zm-14-2s-1 8 7 10c8 1 13-17 11-22-1-3-6-5-9-3s-8 9-9 15Zm-44-23c-13-20-2-67 25-68 17 0 27 12 30 20 13-6 22-8 35-8 0 14 0 144 0 157-27 0-67 25-92 14-19-10-24-22-29-37-6-39 24-55 31-81Z" />
</svg>


