<svg version="1.0" xmlns="http://www.w3.org/2000/svg" width="270" height="270" fill="#774724">
<path d="M224 102C231 128 261 144 255 183 250 198 245 210 226 220 201 231 161 206 134 206 134 193 134 63 134 49 147 49 156 51 169 57 172 49 182 37 199 37 226 38 237 85 224 105Z
M170 120c-1.9-1.1-6.75-1.85-8.65-1.1-6.35 2.25-10.5 9.35-8.25 15.35.75 2.65 2.25 4.5 4.9 6.4 6 4.1 14.6 1.1 17.6-5.65 1.15-2.25 1.15-6.75 0-9s-3.35-4.85-5.6-6z" />
<path d="M48 102C41 128 11 144 17 183 22 198 27 210 46 220 71 231 111 206 138 206 138 193 138 63 138 49 125 49 116 51 103 57 100 49 90 37 73 37 46 38 35 85 48 105ZM100 120c1.9-1.1 6.75-1.85 8.65-1.1 6.35 2.25 10.5 9.35 8.25 15.35-.75 2.65-2.25 4.5-4.9 6.4-6 4.1-14.6 1.1-17.6-5.65-1.15-2.25-1.15-6.75 0-9s3.35-4.85 5.6-6z" />

<path d="M108.75 133.25c-1.9 0-2.65-.75-2.65-2.25s.75-2.65 2.65-2.65 2.6 1.15 2.6 2.65-1.1 2.25-2.6 2.25zm-6.4 6.35c3.4 1.15 6.75.75 9.4-1.85 3-2.65 4.1-6 3-9.75-.75-2.25-3-4.9-4.9-6-7.5-3.75-15.75 3-13.5 10.85.75 2.65 3.4 5.65 6 6.75z"/>
<path d="M161.25 133.25c1.9 0 2.65-.75 2.65-2.25s-.75-2.65-2.65-2.65-2.65 1.15-2.65 2.65 1.15 2.25 2.65 2.25zm6.4 6.4c-3.4 1.15-6.75.75-9.4-1.9-3-2.65-4.15-6-3-9.75.75-2.25 3-4.9 4.9-6 7.5-3.75 15.75 3 13.5 10.9-.75 2.65-3.4 5.65-6 6.75z"/>
</svg>


