<svg version="1.0" xmlns="http://www.w3.org/2000/svg" width="270" height="270" fill="#774724">
<path d="M224 102C231 128 261 144 255 183 250 198 245 210 226 220 201 231 161 206 134 206 134 193 134 63 134 49 147 49 156 51 169 57 172 49 182 37 199 37 226 38 237 85 224 105ZM179.3 112.5C175.5 110.3 165.8 108.8 162 110.3 149.3 114.8 141 129 145.5 141 147 146.3 150 150 155.3 153.8 167.3 162 184.5 156 190.5 142.5 192.8 138 192.8 129 190.5 124.5S183.8 114.8 179.3 112.5Z" />
<path d="M48 102c-7 26-37 42-31 81 5 15 10 27 29 37 25 11 65-14 92-14 0-13 0-143 0-157-13 0-22 2-35 8-3-8-13-20-30-20-27 1-38 48-25 68Zm34.5 10.5c3.8-2.2 13.5-3.7 17.3-2.2 12.7 4.5 21 18.7 16.5 30.7-1.5 5.3-4.5 9-9.8 12.8-12 8.2-29.2 2.2-35.2-11.3-2.3-4.5-2.3-13.5 0-18s6.7-9.7 11.2-12Z" />

<path d="M99.8 138.8c-3.8 0-5.3-1.5-5.3-4.5S96 129 99.8 129s5.2 2.3 5.2 5.3-2.2 4.5-5.2 4.5ZM87 151.5c6.8 2.3 13.5 1.5 18.8-3.7 6-5.3 8.2-12 6-19.5-1.5-4.5-6-9.8-9.8-12-15-7.5-31.5 6-27 21.7 1.5 5.3 6.8 11.3 12 13.5Z"/>
<path d="M162 138.8c3.8 0 5.3-1.5 5.3-4.5s-1.5-5.3-5.3-5.3-5.3 2.3-5.3 5.3 2.3 4.5 5.3 4.5Zm12.8 12.8c-6.8 2.3-13.5 1.5-18.8-3.8-6-5.3-8.3-12-6-19.5 1.5-4.5 6-9.8 9.8-12 15-7.5 31.5 6 27 21.8-1.5 5.3-6.8 11.3-12 13.5Z"/>
</svg>


